<?xml version="1.0"?><svg width="100%" height="100%" viewBox="0 0 317 117" version="1.1" xmlns="http://www.w3.org/2000/svg" xmlns:xlink="http://www.w3.org/1999/xlink" xml:space="preserve" xmlns:serif="http://www.serif.com/" style="fill-rule:evenodd;clip-rule:evenodd;stroke-linejoin:round;stroke-miterlimit:2;"><g><path d="M161.904,115.061l-46.337,-0l0,-113.486l68.324,-0l-0,76.939c-0.111,8.762 -3.771,13.31 -10.648,13.31c-6.765,-0 -10.536,-4.492 -10.87,-13.088l-30.833,-0c-0.095,22.326 12.963,33.516 30.364,36.325Z"></path><path d="M0,1.553l0,113.574l30.168,-0l-0,-66.104l0.887,-0l25.288,65.217l18.19,0l25.288,-64.773l0.887,-0l0,65.66l30.169,-0l-0,-113.574l-38.376,-0l-26.398,64.328l-1.33,0l-26.398,-64.328l-38.375,-0Z" style="fill-rule:nonzero;"></path><path d="M214.043,33.375c0.079,-0.199 0.158,-0.398 0.238,-0.597l0,45.736c-0.009,1.741 -0.126,3.438 -0.347,5.087c-0.082,-0.211 -0.162,-0.424 -0.241,-0.637c0.231,-1.676 0.35,-3.369 0.35,-5.064l0,-44.525Z" style="fill-rule:nonzero;"></path><path d="M283.798,39.041l31.166,-0c-2.384,-22.793 -23.07,-39.041 -49.911,-39.041c-30.611,0 -55.456,21.073 -55.456,58.562c-0,35.935 22.515,58.117 55.678,58.117c29.725,0 51.02,-18.189 51.02,-49.244l0,-15.75l-50.354,-0l-0,21.961l20.629,-0c-0.277,9.871 -7.264,16.193 -21.073,16.193c-15.971,-0 -24.179,-11.757 -24.179,-31.721c-0,-19.687 8.873,-31.277 24.401,-31.277c9.649,-0 16.193,4.436 18.079,12.2Z" style="fill-rule:nonzero;"></path></g></svg>