<svg width="50" height="50" viewBox="0 0 50 50" xmlns="http://www.w3.org/2000/svg" xmlns:xlink="http://www.w3.org/1999/xlink" style="fill-rule:evenodd;clip-rule:evenodd;stroke-linejoin:round;stroke-miterlimit:2;">
    <g transform="matrix(1,0,0,1,0,-96.3262)">
        <g id="Artboard1" transform="matrix(0.340136,0,0,0.28491,-323.129,96.3262)">
            <rect x="950" y="0" width="147" height="175.494" style="fill:none;"/>
            <clipPath id="_clip1">
                <rect x="950" y="0" width="147" height="175.494"/>
            </clipPath>
            <g clip-path="url(#_clip1)">
                <g transform="matrix(2.94,0,0,3.50988,950,0)">
                    <path d="M50,17.5L50,32.5C50,42.159 42.159,50 32.5,50L17.5,50C7.841,50 0,42.159 0,32.5L0,17.5C0,7.841 7.841,0 17.5,0L32.5,0C42.159,0 50,7.841 50,17.5Z"/>
                </g>
                <g transform="matrix(0.31351,0,0,0.37428,880.07,-143.035)">
                    <path d="M461.711,680.06L409.719,680.06L409.719,552.725L486.38,552.725L486.38,639.053C486.256,648.884 482.149,653.987 474.433,653.987C466.842,653.987 462.611,648.947 462.237,639.302L427.641,639.302C427.534,664.352 442.186,676.909 461.711,680.06Z" style="fill:white;"/>
                </g>
                <g transform="matrix(0.31351,0,0,0.37428,880.07,-143.017)">
                    <path d="M280.049,552.651L280.049,680.085L313.898,680.085L313.898,605.914L314.894,605.914L343.268,679.09L363.677,679.09L392.051,606.412L393.047,606.412L393.047,680.085L426.897,680.085L426.897,552.651L383.838,552.651L354.219,624.83L352.726,624.83L323.107,552.651L280.049,552.651Z" style="fill:white;fill-rule:nonzero;"/>
                </g>
                <g transform="matrix(0.31351,0,0,0.37428,880.07,-143.12)">
                    <path d="M520.212,588.633C520.3,588.409 520.389,588.186 520.479,587.963L520.479,639.28C520.469,641.233 520.338,643.138 520.089,644.988C519.998,644.751 519.908,644.513 519.819,644.273C520.079,642.393 520.212,640.493 520.212,638.591L520.212,588.633Z" style="fill:white;fill-rule:nonzero;"/>
                </g>
                <g transform="matrix(0.31351,0,0,0.37428,880.07,-143.017)">
                    <path d="M598.479,594.714L633.448,594.714C630.773,569.14 607.563,550.909 577.447,550.909C543.1,550.909 515.223,574.554 515.223,616.617C515.223,656.938 540.486,681.827 577.696,681.827C611.048,681.827 634.942,661.418 634.942,626.573L634.942,608.901L578.443,608.901L578.443,633.542L601.59,633.542C601.279,644.618 593.439,651.711 577.945,651.711C560.025,651.711 550.815,638.52 550.815,616.119C550.815,594.03 560.771,581.025 578.194,581.025C589.021,581.025 596.363,586.003 598.479,594.714Z" style="fill:white;fill-rule:nonzero;"/>
                </g>
            </g>
        </g>
    </g>
</svg>
