<?xml version="1.0"?><svg width="100%" height="100%" viewBox="0 0 85 296" version="1.1" xmlns="http://www.w3.org/2000/svg" xmlns:xlink="http://www.w3.org/1999/xlink" xml:space="preserve" xmlns:serif="http://www.serif.com/" style="fill-rule:evenodd;clip-rule:evenodd;stroke-linecap:round;stroke-linejoin:round;stroke-miterlimit:1.5;"><path d="M5.818,9.627c-2.921,0 -5.289,-2.368 -5.289,-5.289l-0,-3.809l83.085,-0l-0,3.809c-0,2.921 -2.368,5.289 -5.29,5.289l-0.909,0c-0,1.909 -0.759,3.741 -2.108,5.091c-1.35,1.35 -3.181,2.108 -5.09,2.108l4.048,-0c1.739,-0 3.15,1.411 3.15,3.149c-0,1.739 -1.411,3.15 -3.15,3.15l-0.242,-0l0,0.002c0,2.152 -1.744,3.897 -3.897,3.897l2.554,0l-0,120.88l-61.737,0l0,-120.88l2.362,0c-2.153,0 -3.898,-1.745 -3.898,-3.897l0,-0.002l0.27,-0c-1.738,-0 -3.149,-1.411 -3.149,-3.15c-0,-1.738 1.411,-3.149 3.149,-3.149l3.041,-0c-1.909,-0 -3.74,-0.758 -5.09,-2.108c-1.35,-1.35 -2.108,-3.181 -2.108,-5.09l0.298,-0.001Z" style="fill:#faf8f4;"></path><path d="M5.818,286.181c-2.921,-0 -5.289,2.368 -5.289,5.289l-0,3.809l83.085,0l-0,-3.809c-0,-2.921 -2.368,-5.289 -5.29,-5.289l-0.909,-0c-0,-1.909 -0.759,-3.741 -2.108,-5.09c-1.35,-1.35 -3.181,-2.109 -5.09,-2.109l4.048,0c1.739,0 3.15,-1.411 3.15,-3.149c-0,-1.738 -1.411,-3.149 -3.15,-3.149l-0.242,-0l0,-0.002c0,-2.153 -1.744,-3.898 -3.897,-3.898l2.554,0l-0,-120.88l-61.737,0l0,120.88l2.362,0c-2.153,0 -3.898,1.745 -3.898,3.898l0,0.002l0.27,-0c-1.738,-0 -3.149,1.411 -3.149,3.149c-0,1.738 1.411,3.149 3.149,3.149l3.041,0c-1.909,0 -3.74,0.759 -5.09,2.109c-1.35,1.349 -2.108,3.181 -2.108,5.09l0.298,-0Z" style="fill:#faf8f4;"></path><path d="M83.614,0.529l-0,4.098c-0,1.326 -0.527,2.598 -1.465,3.536c-0.937,0.937 -2.209,1.464 -3.535,1.464c-14.802,0 -58.284,0 -73.085,0c-1.326,0 -2.598,-0.527 -3.536,-1.464c-0.937,-0.938 -1.464,-2.21 -1.464,-3.536c-0,-2.115 -0,-4.098 -0,-4.098l83.085,-0Z" style="fill:none;stroke:#f4efe5;stroke-width:1.06px;"></path><path d="M70.217,16.826c1.909,-0 3.74,-0.758 5.09,-2.108c1.349,-1.35 2.108,-3.181 2.108,-5.09c-0,-0.001 -0,-0.001 -0,-0.001l-71.895,0l0,0.001c0,1.909 0.758,3.74 2.108,5.09c1.35,1.35 3.181,2.108 5.09,2.108c13.776,-0 43.723,-0 57.499,-0Z" style="fill:none;stroke:#f4efe5;stroke-width:1.06px;"></path><path d="M77.415,19.975c-0,1.739 -1.411,3.15 -3.15,3.15l-64.588,-0c-1.738,-0 -3.149,-1.411 -3.149,-3.15c-0,-1.738 1.411,-3.149 3.149,-3.149l64.588,-0c1.739,-0 3.15,1.411 3.15,3.149Z" style="fill:none;stroke:#f4efe5;stroke-width:1.06px;"></path><path d="M70.125,27.024c2.153,0 3.898,-1.745 3.898,-3.898c0,-0.001 0,-0.001 0,-0.001l-64.616,-0l0,0.001c0,2.153 1.745,3.898 3.898,3.898c11.517,0 45.303,0 56.82,0Z" style="fill:none;stroke:#f4efe5;stroke-width:1.06px;"></path><path d="M83.614,295.279l-0,-4.098c-0,-1.326 -0.527,-2.598 -1.465,-3.535c-0.937,-0.938 -2.209,-1.465 -3.535,-1.465c-14.802,0 -58.284,0 -73.085,0c-1.326,0 -2.598,0.527 -3.536,1.465c-0.937,0.937 -1.464,2.209 -1.464,3.535c-0,2.115 -0,4.098 -0,4.098l83.085,0Z" style="fill:none;stroke:#f4efe5;stroke-width:1.06px;"></path><path d="M70.217,278.982c1.909,0 3.74,0.759 5.09,2.109c1.349,1.35 2.108,3.18 2.108,5.089c-0,0.001 -0,0.001 -0,0.001l-71.895,0l0,-0.001c0,-1.909 0.758,-3.739 2.108,-5.089c1.35,-1.35 3.181,-2.109 5.09,-2.109c13.776,0 43.723,0 57.499,0Z" style="fill:none;stroke:#f4efe5;stroke-width:1.06px;"></path><path d="M77.415,275.833c-0,-1.738 -1.411,-3.149 -3.15,-3.149l-64.588,-0c-1.738,-0 -3.149,1.411 -3.149,3.149c-0,1.738 1.411,3.149 3.149,3.149l64.588,0c1.739,0 3.15,-1.411 3.15,-3.149Z" style="fill:none;stroke:#f4efe5;stroke-width:1.06px;"></path><path d="M70.125,268.784c2.153,0 3.898,1.745 3.898,3.898c0,0.001 0,0.002 0,0.002l-64.616,-0l0,-0.002c0,-2.153 1.745,-3.898 3.898,-3.898c11.517,0 45.303,0 56.82,0Z" style="fill:none;stroke:#f4efe5;stroke-width:1.06px;"></path><rect x="10.943" y="27.024" width="61.737" height="241.76" style="fill:none;stroke:#f4efe5;stroke-width:1.06px;"></rect></svg>